<svg xmlns="http://www.w3.org/2000/svg" width="760" height="520" viewBox="0 0 760 520" role="img" aria-labelledby="title desc">
  <title id="title">How often students used each argument type</title>
  <desc id="desc">Horizontal bars compare detected argument types in texts written with and without generative-AI support.</desc>
  <rect width="760" height="520" fill="#ffffff"/>
  <text x="270" y="36" text-anchor="middle" font-family="Inter, Arial, sans-serif" font-size="24" font-weight="700">How often students used each argument type</text>
  <text x="270" y="65" text-anchor="middle" font-family="Inter, Arial, sans-serif" font-size="17" fill="#57534">Share of texts where the argument was detected</text>
  <rect x="170" y="92" width="18" height="18" fill="#2f80d0"/><text x="195" y="107" font-family="Inter, Arial, sans-serif" font-size="15">With generative-AI support</text>
  <rect x="410" y="92" width="18" height="18" fill="#df5a2e"/><text x="435" y="107" font-family="Inter, Arial, sans-serif" font-size="15">Without generative-AI support</text>
  <g transform="translate(210 145)" font-family="Inter, Arial, sans-serif" font-size="14">
    <g stroke="#e5e5e5" stroke-width="1">
      <line x1="0" y1="0" x2="0" y2="330"/><line x1="150" y1="0" x2="150" y2="330"/><line x1="300" y1="0" x2="300" y2="330"/><line x1="450" y1="0" x2="450" y2="330"/>
    </g>
    <g fill="#777169" text-anchor="end">
      <text x="-10" y="18">Classroom belonging</text>
      <text x="-10" y="52">Trust and respect</text>
      <text x="-10" y="86">Subject mastery</text>
      <text x="-10" y="120">Critical thinking</text>
      <text x="-10" y="154">Teacher as role model</text>
      <text x="-10" y="188">Individual support</text>
      <text x="-10" y="222">Student motivation</text>
      <text x="-10" y="256">Safe learning environment</text>
      <text x="-10" y="290">Interest in the subject</text>
    </g>
    <g>
      <rect x="0" y="6" width="16" height="14" fill="#2f80d0"/><rect x="0" y="21" width="1" height="14" fill="#df5a2e"/>
      <rect x="0" y="40" width="43" height="14" fill="#2f80d0"/><rect x="0" y="55" width="18" height="14" fill="#df5a2e"/>
      <rect x="0" y="74" width="87" height="14" fill="#2f80d0"/><rect x="0" y="89" width="39" height="14" fill="#df5a2e"/>
      <rect x="0" y="108" width="83" height="14" fill="#2f80d0"/><rect x="0" y="123" width="4" height="14" fill="#df5a2e"/>
      <rect x="0" y="142" width="92" height="14" fill="#2f80d0"/><rect x="0" y="157" width="12" height="14" fill="#df5a2e"/>
      <rect x="0" y="176" width="160" height="14" fill="#2f80d0"/><rect x="0" y="191" width="10" height="14" fill="#df5a2e"/>
      <rect x="0" y="210" width="210" height="14" fill="#2f80d0"/><rect x="0" y="225" width="39" height="14" fill="#df5a2e"/>
      <rect x="0" y="244" width="206" height="14" fill="#2f80d0"/><rect x="0" y="259" width="17" height="14" fill="#df5a2e"/>
      <rect x="0" y="278" width="231" height="14" fill="#2f80d0"/><rect x="0" y="293" width="35" height="14" fill="#df5a2e"/>
    </g>
    <g fill="#000000" font-size="12">
      <text x="21" y="18">3.2%</text><text x="6" y="33">0.1%</text>
      <text x="48" y="52">8.6%</text><text x="23" y="67">3.5%</text>
      <text x="92" y="86">17.3%</text><text x="44" y="101">7.8%</text>
      <text x="88" y="120">16.6%</text><text x="9" y="135">0.7%</text>
      <text x="97" y="154">18.4%</text><text x="17" y="169">2.3%</text>
      <text x="165" y="188">32.0%</text><text x="15" y="203">1.9%</text>
      <text x="215" y="222">41.9%</text><text x="44" y="237">7.7%</text>
      <text x="211" y="256">41.1%</text><text x="22" y="271">3.3%</text>
      <text x="236" y="290">46.2%</text><text x="40" y="305">7.0%</text>
    </g>
    <g fill="#777169" text-anchor="middle">
      <text x="0" y="355">0</text><text x="150" y="355">30</text><text x="300" y="355">60</text><text x="450" y="355">90</text>
    </g>
    <text x="225" y="374" text-anchor="middle" font-size="17">Texts using this argument (%)</text>
  </g>
</svg>
